<svg xmlns="http://www.w3.org/2000/svg" version="1.1" xmlns:xlink="http://www.w3.org/1999/xlink" xmlns:svgjs="http://svgjs.dev/svgjs" width="2000" height="1500" viewBox="0 0 2000 1500"><rect width="2000" height="1500" fill="#dedede"></rect><g transform="matrix(0.75,0,0,0.75,249.09154779283585,529.3269777482532)"><svg viewBox="0 0 396 116" data-background-color="#dedede" preserveAspectRatio="xMidYMid meet" height="585" width="2000" xmlns="http://www.w3.org/2000/svg" xmlns:xlink="http://www.w3.org/1999/xlink"><g id="tight-bounds" transform="matrix(1,0,0,1,0.24008861730862918,0.34318081185784877)"><svg viewBox="0 0 395.52 115.3136383762843" height="115.3136383762843" width="395.52"><g><svg viewBox="0 0 395.52 115.3136383762843" height="115.3136383762843" width="395.52"><g><svg viewBox="0 0 395.52 115.3136383762843" height="115.3136383762843" width="395.52"><g id="textblocktransform"><svg viewBox="0 0 395.52 115.3136383762843" height="115.3136383762843" width="395.52" id="textblock"><g><svg viewBox="0 0 395.52 115.3136383762843" height="115.3136383762843" width="395.52"><path d="M394.594 24.733C392.735 12.763 387.435 9.436 387.435 9.436 371.165-2.893 350.86-0.236 332.619 1.536 300.414 1.607 268.339 4.241 236.208 5.653 168.767 5.869 100.749 2.326 33.643 11.063 27.339 13.745-6.54 11.59 1.121 26.265 3.129 32.369 10.456 39.144 10.232 44.746 11.236 45.727 12.631 43.477 13.226 44.889 15.309 48.696 18.711 46.9 21.501 49.15 17.614 55.159 20.403 60.162 23.062 65.405 18.377 66.77 12.371 66.123 9.675 70.648 9.396 73.927 7.89 73.305 6.235 73.161 5.026 73.065 2.59 73.425 2.999 74.454 4.394 77.973-1.594 80.008 2.162 83.455-0.422 87.189 3.948 90.421 3.353 94.467 3.278 95.281 3.687 95.975 4.338 96.167 7.22 97.196 3.018 99.207 3.464 101.385 33.029 116.275 65.104 105.982 95.394 112.828 103.259 108.04 97.346 114.528 100.489 113.522 102.943 112.349 104.728 117.209 107.499 114.456 107.927 113.666 107.276 111.799 108.8 112.158 109.6 112.349 110.307 112.302 110.418 111.2 110.586 109.549 109.117 110.578 108.726 109.716 112.947 105.359 111.906 115.725 115.866 115.294 115.68 114.025 114.528 112.206 116.889 112.445 119.232 110.626 119.306 109.118 121.389 113.211 121.463 114.097 121.835 114.719 122.43 115.15 128.938 110.698 135.409 116.73 142.233 114.719 146.417 112.517 150.433 115.916 154.672 115.078 156.16 114.408 157.666 113.211 159.098 115.222 176.632 115.653 195.319 113.858 211.943 115.294 256.364 112.613 303.836 116.395 350.674 112.852 361.719 111.488 373.192 109.549 383.958 107.993 383.958 107.993 392.679 103.731 392.679 84.58S394.538 67.823 394.817 52.574C395.096 37.324 396.398 36.702 394.538 24.733Z" opacity="1" fill="#374151" data-fill-palette-color="tertiary"></path><g transform="matrix(1,0,0,1,55.76832,26.230666666666668)"><svg width="283.98335999999995" viewBox="1.25 -36.4 197.88 43.8" height="62.85230504295096" data-palette-color="#dedede"><path d="M18.75-0.1L18.75-0.1Q16.25-0.1 14.95-1.75 13.65-3.4 13.18-6.68 12.7-9.95 12.7-14.8L12.7-14.8Q12.7-16.55 12.75-18.1 12.8-19.65 12.85-21L12.85-21Q6.85-21.3 4.05-22.7 1.25-24.1 1.25-27.55L1.25-27.55Q1.25-31.85 5.63-33.35 10-34.85 18.8-34.85L18.8-34.85Q27.65-34.85 32.13-33.35 36.6-31.85 36.6-27.55L36.6-27.55Q36.6-24.15 33.77-22.73 30.95-21.3 25-21L25-21Q25.1-19.65 25.15-18.1 25.2-16.55 25.2-14.8L25.2-14.8Q25.2-7.15 23.85-3.63 22.5-0.1 18.75-0.1ZM39.95 0L39.95 0Q38.25 0 37.17-1.13 36.1-2.25 35.55-4.15 35-6.05 34.8-8.5 34.6-10.95 34.6-13.55L34.6-13.55Q34.6-15.3 34.67-17.13 34.75-18.95 35.17-20.5 35.6-22.05 36.62-23.03 37.65-24 39.55-24L39.55-24Q40.9-24 42-23.38 43.1-22.75 43.4-21.5L43.4-21.5Q44.55-22.55 46.32-23.03 48.1-23.5 50-23.5L50-23.5Q51.6-23.5 53.25-22.73 54.9-21.95 56.05-20.6 57.2-19.25 57.2-17.55L57.2-17.55Q57.2-16.1 56.12-14.8 55.05-13.5 53.1-13.5L53.1-13.5Q52.25-13.5 51.7-13.73 51.15-13.95 50.65-14.15 50.15-14.35 49.45-14.35L49.45-14.35Q47.6-14.35 46.07-12.88 44.55-11.4 44.55-8.9L44.55-8.9Q44.55-7.6 44.47-6.08 44.4-4.55 44.02-3.15 43.65-1.75 42.7-0.88 41.75 0 39.95 0ZM69.75 0L69.75 0Q66 0 63.17-1.48 60.35-2.95 58.77-5.53 57.2-8.1 57.2-11.45L57.2-11.45Q57.2-14.7 58.77-17.45 60.35-20.2 63.12-21.85 65.9-23.5 69.5-23.5L69.5-23.5Q72.85-23.5 75.25-22.15 77.65-20.8 78.92-18.73 80.2-16.65 80.2-14.35L80.2-14.35Q80.2-12.05 79.15-10.58 78.1-9.1 76.42-8.33 74.75-7.55 72.85-7.3 70.95-7.05 69.2-7.23 67.45-7.4 66.25-7.8L66.25-7.8Q67.15-6.35 68.52-5.83 69.9-5.3 71.42-5.38 72.95-5.45 74.2-5.7L74.2-5.7Q75.75-6.05 76.75-5.55 77.75-5.05 77.8-3.95L77.8-3.95Q77.85-3.05 77.17-2.15 76.5-1.25 74.75-0.63 73 0 69.75 0ZM66.4-13.9L66.4-13.9Q66.9-13.1 67.85-12.78 68.8-12.45 69.77-12.55 70.75-12.65 71.42-13.1 72.1-13.55 72.1-14.35L72.1-14.35Q72.1-15.2 71.42-15.88 70.75-16.55 69.3-16.55L69.3-16.55Q67.9-16.55 67.15-15.68 66.4-14.8 66.4-13.9ZM101.44 0L101.44 0Q99.44 0 98.62-1.13 97.79-2.25 97.64-3.98 97.49-5.7 97.49-7.45L97.49-7.45Q97.49-10.1 96.74-11.73 95.99-13.35 94.09-13.35L94.09-13.35Q92.39-13.35 91.59-11.73 90.79-10.1 90.79-7.45L90.79-7.45Q90.79-5.7 90.67-4 90.54-2.3 89.74-1.18 88.94-0.05 86.84-0.05L86.84-0.05Q85.29-0.05 84.27-1.2 83.24-2.35 82.69-4.2 82.14-6.05 81.92-8.2 81.69-10.35 81.69-12.35L81.69-12.35Q81.69-14.35 81.89-16.45 82.09-18.55 82.62-20.35 83.14-22.15 84.14-23.25 85.14-24.35 86.74-24.35L86.74-24.35Q89.59-24.35 90.29-21.75L90.29-21.75Q90.89-22.4 92.22-22.98 93.54-23.55 95.24-23.55L95.24-23.55Q99.09-23.55 101.54-21.6 103.99-19.65 105.12-16.23 106.24-12.8 106.19-8.3L106.19-8.3Q106.19-6 105.77-4.13 105.34-2.25 104.32-1.13 103.29 0 101.44 0ZM119.59 0L119.59 0Q115.89 0 113.22-1.75 110.54-3.5 109.12-6.3 107.69-9.1 107.69-12.15L107.69-12.15Q107.69-16.05 109.27-18.55 110.84-21.05 113.29-22.28 115.74-23.5 118.39-23.5L118.39-23.5Q119.64-23.5 120.94-23.23 122.24-22.95 123.39-22.3L123.39-22.3Q123.19-24.45 122.52-26.53 121.84-28.6 121.84-30.75L121.84-30.75Q121.84-32.95 123.19-34 124.54-35.05 126.09-35.05L126.09-35.05Q127.89-35.05 129.19-33.9 130.49-32.75 131.42-30.85 132.34-28.95 132.89-26.58 133.44-24.2 133.69-21.7 133.94-19.2 133.94-16.9L133.94-16.9Q133.94-16.15 133.87-14.6 133.79-13.05 133.39-11.15 132.99-9.25 132.12-7.3 131.24-5.35 129.67-3.7 128.09-2.05 125.64-1.03 123.19 0 119.59 0ZM119.89-7.9L119.89-7.9Q121.24-7.9 122.24-8.93 123.24-9.95 123.24-11.35L123.24-11.35Q123.24-12.75 122.24-13.8 121.24-14.85 119.89-14.85L119.89-14.85Q118.54-14.85 117.52-13.8 116.49-12.75 116.49-11.35L116.49-11.35Q116.49-9.95 117.52-8.93 118.54-7.9 119.89-7.9ZM141.29-24.25L141.29-24.25Q138.84-24.25 137.14-26.03 135.44-27.8 135.44-30.35L135.44-30.35Q135.44-32.05 136.21-33.4 136.99-34.75 138.31-35.58 139.64-36.4 141.29-36.4L141.29-36.4Q142.89-36.4 144.21-35.58 145.54-34.75 146.34-33.4 147.14-32.05 147.14-30.35L147.14-30.35Q147.14-28.65 146.34-27.28 145.54-25.9 144.21-25.08 142.89-24.25 141.29-24.25ZM141.29 0L141.29 0Q139.29 0 138.31-1.15 137.34-2.3 137.01-4.67 136.69-7.05 136.64-10.8L136.64-10.8Q136.64-14.55 136.96-16.95 137.29-19.35 138.29-20.48 139.29-21.6 141.29-21.6L141.29-21.6Q143.29-21.6 144.26-20.48 145.24-19.35 145.59-16.95 145.94-14.55 145.94-10.8L145.94-10.8Q145.99-7.05 145.64-4.67 145.29-2.3 144.29-1.15 143.29 0 141.29 0ZM159.58-0.1L159.58-0.1Q157.69-0.1 156.53-1.45 155.38-2.8 154.81-5.18 154.23-7.55 154.03-10.7L154.03-10.7Q150.98-10.95 149.31-11.9 147.63-12.85 147.63-15.2L147.63-15.2Q147.63-17.55 149.31-18.53 150.98-19.5 154.03-19.8L154.03-19.8Q154.28-24.25 155.41-27.7 156.53-31.15 159.08-33.08 161.63-35 166.23-35L166.23-35Q168.78-35 170.71-33.8 172.63-32.6 172.63-30.05L172.63-30.05Q172.63-27.4 170.96-26.18 169.28-24.95 166.94-24.5L166.94-24.5Q165.08-24.15 164.33-22.88 163.58-21.6 163.38-19.9L163.38-19.9Q167.88-19.8 170.26-18.95 172.63-18.1 172.63-15.2L172.63-15.2Q172.63-13.3 171.53-12.33 170.44-11.35 168.36-11 166.28-10.65 163.48-10.6L163.48-10.6Q163.48-8.6 163.53-6.98 163.58-5.35 163.58-4L163.58-4Q163.58-2.4 162.94-1.55 162.28-0.7 161.36-0.4 160.44-0.1 159.58-0.1ZM182.23 7.4L182.23 7.4Q180.58 7.4 179.16 6.98 177.73 6.55 176.83 5.63 175.93 4.7 175.93 3.25L175.93 3.25Q175.93 1.5 177.53 0.6 179.13-0.3 181.13-0.2L181.13-0.2Q183.33-0.15 184.56-0.43 185.78-0.7 186.43-1.5L186.43-1.5Q181.83-1.5 179.08-2.85 176.33-4.2 175.11-7.05 173.88-9.9 173.88-14.45L173.88-14.45Q173.88-16.9 174.38-18.93 174.88-20.95 176.01-22.18 177.13-23.4 178.98-23.4L178.98-23.4Q181.48-23.4 182.53-21.98 183.58-20.55 183.58-18.65L183.58-18.65Q183.58-16.95 183.53-15.33 183.48-13.7 183.63-12.45 183.78-11.2 184.43-10.45 185.08-9.7 186.48-9.7L186.48-9.7Q187.88-9.7 188.53-10.45 189.18-11.2 189.33-12.45 189.48-13.7 189.43-15.28 189.38-16.85 189.38-18.55L189.38-18.55Q189.38-20.65 190.46-22.03 191.53-23.4 193.98-23.4L193.98-23.4Q195.88-23.4 197.01-22.18 198.13-20.95 198.63-18.93 199.13-16.9 199.13-14.45L199.13-14.45Q199.13-10.35 198.26-6.43 197.38-2.5 195.41 0.6 193.43 3.7 190.21 5.55 186.98 7.4 182.23 7.4Z" opacity="1" transform="matrix(1,0,0,1,0,0)" fill="#dedede" class="wordmark-text-0" data-fill-palette-color="quaternary" id="text-0"></path></svg></g></svg></g></svg></g></svg></g><g></g></svg></g><defs></defs></svg><rect width="395.52" height="115.3136383762843" fill="none" stroke="none" visibility="hidden"></rect></g></svg></g></svg>